<?xml version="1.0" encoding="UTF-8" standalone="no" ?>
<!DOCTYPE svg PUBLIC "-//W3C//DTD SVG 1.1//EN" "http://www.w3.org/Graphics/SVG/1.1/DTD/svg11.dtd">
<svg xmlns="http://www.w3.org/2000/svg" xmlns:xlink="http://www.w3.org/1999/xlink" version="1.1" width="345" height="450" viewBox="0 0 345 450" xml:space="preserve">
<desc>Created with Fabric.js 4.6.0</desc>
<defs>
</defs>
<g transform="matrix(1 0 0 1 174.32 268.1)" id="dk4Cjoj1mtX7ae1TCLsgb"  >
<path style="stroke: rgb(255,255,255); stroke-width: 2; stroke-dasharray: none; stroke-linecap: butt; stroke-dashoffset: 0; stroke-linejoin: miter; stroke-miterlimit: 4; fill: rgb(0,0,0); fill-opacity: 0; fill-rule: nonzero; opacity: 1;" vector-effect="non-scaling-stroke"  transform=" translate(-171.27, -267.12)" d="M 321.77 267.12 L 20.77 267.12" stroke-linecap="round" />
</g>
<g transform="matrix(1 0 0 1 174.95 134.7)" id="-rP_F6BDASUE3JLlYR4RS"  >
<path style="stroke: rgb(255,255,255); stroke-width: 2; stroke-dasharray: none; stroke-linecap: butt; stroke-dashoffset: 0; stroke-linejoin: miter; stroke-miterlimit: 4; fill: rgb(0,0,0); fill-opacity: 0; fill-rule: nonzero; opacity: 1;" vector-effect="non-scaling-stroke"  transform=" translate(-171.9, -133.72)" d="M 308.9 133.72 L 34.9 133.72" stroke-linecap="round" />
</g>
<g transform="matrix(1 0 0 1 3.05 0.98)" id="IYxQLMq7fioGg8JSVO12y"  >
<path style="stroke: rgb(0,0,0); stroke-width: 2; stroke-dasharray: none; stroke-linecap: butt; stroke-dashoffset: 0; stroke-linejoin: miter; stroke-miterlimit: 4; fill: rgb(0,0,0); fill-opacity: 0; fill-rule: nonzero; opacity: 1;" vector-effect="non-scaling-stroke"  transform=" translate(0, 0)" d="" stroke-linecap="round" />
</g>
<g transform="matrix(1 0 0 1 106.18 70.34)" id="-qaBJRRXSYz4fKz7RJPWL"  >
<path style="stroke: none; stroke-width: 1; stroke-dasharray: none; stroke-linecap: butt; stroke-dashoffset: 0; stroke-linejoin: miter; stroke-miterlimit: 4; fill: rgb(42,109,182); fill-rule: nonzero; opacity: 1;" vector-effect="non-scaling-stroke"  transform=" translate(-103.13, -69.36)" d="M 171.9 133.72 L 171.9 5 L 46.56 5 L 34.36 133.72 L 171.9 133.72 Z" stroke-linecap="round" />
</g>
<g transform="matrix(1 0 0 1 106.18 70.34)" id="JokmUPBanBlVDr5_QTA4A"  >
<path style="stroke: rgb(255,255,255); stroke-width: 2; stroke-dasharray: none; stroke-linecap: butt; stroke-dashoffset: 0; stroke-linejoin: miter; stroke-miterlimit: 4; fill: rgb(0,0,0); fill-opacity: 0; fill-rule: nonzero; opacity: 1;" vector-effect="non-scaling-stroke"  transform=" translate(-103.13, -69.36)" d="M 171.9 133.72 L 171.9 5 L 46.56 5 L 34.36 133.72 L 171.9 133.72 Z" stroke-linecap="round" />
</g>
<g transform="matrix(1 0 0 1 174.95 201.51)" id="8Y_K8vcPZaZbWIOrmuAwX"  >
<path style="stroke: none; stroke-width: 1; stroke-dasharray: none; stroke-linecap: butt; stroke-dashoffset: 0; stroke-linejoin: miter; stroke-miterlimit: 4; fill: rgb(182,182,182); fill-rule: nonzero; opacity: 1;" vector-effect="non-scaling-stroke"  transform=" translate(-171.9, -200.53)" d="M 309.27 133.95 L 322.15 267.12 L 21.65 267.12 L 34.44 133.95 L 309.27 133.95 Z" stroke-linecap="round" />
</g>
<g transform="matrix(1 0 0 1 174.95 201.51)" id="Ucehc52X743jxRi1AicwP"  >
<path style="stroke: rgb(255,255,255); stroke-width: 2; stroke-dasharray: none; stroke-linecap: butt; stroke-dashoffset: 0; stroke-linejoin: miter; stroke-miterlimit: 4; fill: rgb(0,0,0); fill-opacity: 0; fill-rule: nonzero; opacity: 1;" vector-effect="non-scaling-stroke"  transform=" translate(-171.9, -200.53)" d="M 309.27 133.95 L 322.15 267.12 L 21.65 267.12 L 34.44 133.95 L 309.27 133.95 Z" stroke-linecap="round" />
</g>
<g transform="matrix(1 0 0 1 243.18 70.34)" id="yUl0lcly9-PU4RF20RWJS"  >
<path style="stroke: none; stroke-width: 1; stroke-dasharray: none; stroke-linecap: butt; stroke-dashoffset: 0; stroke-linejoin: miter; stroke-miterlimit: 4; fill: rgb(42,109,182); fill-rule: nonzero; opacity: 1;" vector-effect="non-scaling-stroke"  transform=" translate(-240.13, -69.36)" d="M 171.36 133.72 L 171.36 5 L 296.7 5 L 308.9 133.72 L 171.36 133.72 Z" stroke-linecap="round" />
</g>
<g transform="matrix(1 0 0 1 243.18 70.34)" id="cePg7wguNFXyR1ni7u__b"  >
<path style="stroke: rgb(255,255,255); stroke-width: 2; stroke-dasharray: none; stroke-linecap: butt; stroke-dashoffset: 0; stroke-linejoin: miter; stroke-miterlimit: 4; fill: rgb(0,0,0); fill-opacity: 0; fill-rule: nonzero; opacity: 1;" vector-effect="non-scaling-stroke"  transform=" translate(-240.13, -69.36)" d="M 171.36 133.72 L 171.36 5 L 296.7 5 L 308.9 133.72 L 171.36 133.72 Z" stroke-linecap="round" />
</g>
<g transform="matrix(1 0 0 1 258.45 356.73)" id="N5AoyAXewlEw7oXyUhmWS"  >
<path style="stroke: none; stroke-width: 1; stroke-dasharray: none; stroke-linecap: butt; stroke-dashoffset: 0; stroke-linejoin: miter; stroke-miterlimit: 4; fill: rgb(42,109,182); fill-rule: nonzero; opacity: 1;" vector-effect="non-scaling-stroke"  transform=" translate(-255.4, -355.75)" d="M 171.9 267.12 L 171.9 444.37 L 338.9 444.37 L 322.24 267.12 L 171.9 267.12 Z" stroke-linecap="round" />
</g>
<g transform="matrix(1 0 0 1 258.45 356.73)" id="E7jzg7pw18tBzZNOur3la"  >
<path style="stroke: rgb(255,255,255); stroke-width: 2; stroke-dasharray: none; stroke-linecap: butt; stroke-dashoffset: 0; stroke-linejoin: miter; stroke-miterlimit: 4; fill: rgb(0,0,0); fill-opacity: 0; fill-rule: nonzero; opacity: 1;" vector-effect="non-scaling-stroke"  transform=" translate(-255.4, -355.75)" d="M 171.9 267.12 L 171.9 444.37 L 338.9 444.37 L 322.24 267.12 L 171.9 267.12 Z" stroke-linecap="round" />
</g>
<g transform="matrix(1 0 0 1 91.55 356.73)" id="KmmSrCPOunrM61yBDAZpz"  >
<path style="stroke: none; stroke-width: 1; stroke-dasharray: none; stroke-linecap: butt; stroke-dashoffset: 0; stroke-linejoin: miter; stroke-miterlimit: 4; fill: rgb(42,109,182); fill-rule: nonzero; opacity: 1;" vector-effect="non-scaling-stroke"  transform=" translate(-88.5, -355.75)" d="M 172 267.12 L 172 444.37 L 5 444.37 L 21.66 267.12 L 172 267.12 Z" stroke-linecap="round" />
</g>
<g transform="matrix(1 0 0 1 91.55 356.73)" id="cfSn1xdfQkpt3R8rv8qWq"  >
<path style="stroke: rgb(255,255,255); stroke-width: 2; stroke-dasharray: none; stroke-linecap: butt; stroke-dashoffset: 0; stroke-linejoin: miter; stroke-miterlimit: 4; fill: rgb(0,0,0); fill-opacity: 0; fill-rule: nonzero; opacity: 1;" vector-effect="non-scaling-stroke"  transform=" translate(-88.5, -355.75)" d="M 172 267.12 L 172 444.37 L 5 444.37 L 21.66 267.12 L 172 267.12 Z" stroke-linecap="round" />
</g>
<g transform="matrix(1 0 0 1 174.95 180.98)" id="SK__ZAavfZn9oKafaStpq"  >
<path style="stroke: none; stroke-width: 1; stroke-dasharray: none; stroke-linecap: butt; stroke-dashoffset: 0; stroke-linejoin: miter; stroke-miterlimit: 4; fill: rgb(255,255,255); fill-opacity: 0; fill-rule: nonzero; opacity: 1;" vector-effect="non-scaling-stroke"  transform=" translate(-171.91, -180)" d="M 5 162.05 L 338.81 162.05 L 338.81 197.96 L 5 197.96 L 5 162.05 Z" stroke-linecap="round" />
</g>
<g transform="matrix(1 0 0 1 174.95 180.98)" id="2BUbLeUBQISuLMKU2CY56"  >
<path style="stroke: rgb(255,255,255); stroke-width: 2; stroke-dasharray: none; stroke-linecap: butt; stroke-dashoffset: 0; stroke-linejoin: miter; stroke-miterlimit: 4; fill: rgb(0,0,0); fill-opacity: 0; fill-rule: nonzero; opacity: 1;" vector-effect="non-scaling-stroke"  transform=" translate(-171.91, -180)" d="M 5 162.05 L 338.81 162.05 L 338.81 197.96 L 5 197.96 L 5 162.05 Z" stroke-linecap="round" />
</g>
</svg>